<svg xmlns="http://www.w3.org/2000/svg" xml:space="preserve" width="554.5" height="483.5" viewBox="0 0 146.7 127.9"><defs><linearGradient id="b" x1="55.5" x2="155.6" y1="112.4" y2="123" gradientUnits="userSpaceOnUse"><stop offset="0" stop-color="#414141"/><stop offset="1" stop-color="#101010"/></linearGradient><linearGradient id="a" x1="84.6" x2="127.5" y1="220.4" y2="80.2" gradientUnits="userSpaceOnUse"><stop offset=".3" stop-color="#4d4d4d"/><stop offset="1" stop-color="#181818"/></linearGradient></defs><g transform="translate(-32.7 -67.2)"><path fill="#333" d="M179.2 150.8a73.3 41 0 0 1-35.5 38.6 73.3 41 0 0 1-77.5-.8 73.3 41 0 0 1-33-39.3l72.9 4.8z"/><ellipse cx="106" cy="150.3" fill="url(#a)" rx="73.3" ry="41.7"/><path fill="url(#b)" d="M55.3 140s5.2 28.2 49.1 28.2c52.3 0 51.5-28.3 51.5-28.3-1.1-7.5-6.1-72.6-26.5-72.5-15.4.1-12.4 18.7-23.6 19.4-8.9-.5-7-20.6-24.3-19.5-14.3.9-25.6 56.4-26.2 72.6z"/><path fill="#f5009d" d="M55.2 139.9s3.3 28.3 49.3 28.4c52.1.1 51.5-27.7 51.5-27.7l-1.2-9.7s-9.3 21.1-50.2 21.3C68 152.4 56.2 130 56.2 130c-.4 2.3-1 9.9-1 9.9z"/></g></svg>